<?xml version="1.0" encoding="iso-8859-1"?>
<!-- Generator: Adobe Illustrator 19.0.0, SVG Export Plug-In . SVG Version: 6.00 Build 0)  -->
<svg version="1.1" id="Layer_1" xmlns="http://www.w3.org/2000/svg" xmlns:xlink="http://www.w3.org/1999/xlink" x="0px" y="0px"
	 viewBox="0 0 474.593 474.593" style="enable-background:new 0 0 474.593 474.593;" xml:space="preserve">
<g>
	<g>
		<polygon points="336.764,180.178 291.039,225.904 291.039,65.265 271.346,65.265 271.346,225.904 225.62,180.178 211.697,194.101 
			281.192,263.596 350.688,194.101 		"/>
	</g>
</g>
<g>
	<g>
		<path d="M424.613,324.999l49.979-207.523H310.731v60.885l26.033-26.034l41.774,41.774l-97.346,97.346l-97.346-97.346
			l41.773-41.774l26.034,26.034v-60.885H97.921L76.163,27.139L3.952,12.342L0,31.629l59.952,12.289l67.481,280.199l-32.61,80.268
			h61.615c-6.173,6.132-10,14.621-10,24.009c0,18.699,15.158,33.857,33.857,33.857c18.699,0,33.857-15.158,33.857-33.857
			c0-9.388-3.827-17.877-10-24.009h99.305c-6.172,6.132-9.999,14.621-9.999,24.009c0,18.699,15.158,33.857,33.857,33.857
			c18.699,0,33.858-15.158,33.858-33.857c0-9.388-3.828-17.877-10-24.009h52.254v-19.692H124.081l24.247-59.693H424.613z"/>
	</g>
</g>
<g>
</g>
<g>
</g>
<g>
</g>
<g>
</g>
<g>
</g>
<g>
</g>
<g>
</g>
<g>
</g>
<g>
</g>
<g>
</g>
<g>
</g>
<g>
</g>
<g>
</g>
<g>
</g>
<g>
</g>
</svg>
