<?xml version="1.0" standalone="no"?>
<!DOCTYPE svg PUBLIC "-//W3C//DTD SVG 20010904//EN"
 "http://www.w3.org/TR/2001/REC-SVG-20010904/DTD/svg10.dtd">
<svg version="1.0" xmlns="http://www.w3.org/2000/svg"
 width="512.000000pt" height="512.000000pt" viewBox="0 0 512.000000 512.000000"
 preserveAspectRatio="xMidYMid meet">

<g transform="translate(0.000000,512.000000) scale(0.100000,-0.100000)"
fill="#000000" stroke="none">
<path d="M2395 5110 c-632 -42 -1198 -299 -1645 -749 -407 -409 -644 -892
-726 -1476 -22 -162 -22 -477 0 -645 78 -582 319 -1073 731 -1486 400 -400
887 -643 1457 -725 256 -37 592 -27 853 26 1141 230 1986 1207 2044 2363 28
571 -114 1095 -425 1562 -503 756 -1380 1189 -2289 1130z m576 -1210 c37 -20
49 -63 49 -175 l0 -105 208 0 c186 0 211 -2 252 -21 60 -27 107 -74 136 -134
21 -45 24 -64 24 -185 0 -113 -3 -138 -18 -156 -23 -29 -54 -44 -91 -44 l-30
0 -3 -792 -3 -793 -27 -57 c-37 -80 -107 -152 -187 -191 l-66 -32 -655 0 -655
0 -66 32 c-80 39 -150 111 -187 191 l-27 57 -3 793 -3 792 -30 0 c-37 0 -68
15 -91 44 -15 18 -18 43 -18 156 0 114 4 142 21 180 27 60 74 107 134 136 48
23 60 24 258 24 l207 0 0 105 c0 110 12 153 47 174 25 14 797 15 824 1z"/>
<path d="M2310 3665 l0 -45 250 0 250 0 0 45 0 45 -250 0 -250 0 0 -45z"/>
<path d="M1705 3395 c-18 -18 -25 -35 -25 -65 l0 -40 880 0 880 0 0 40 c0 30
-7 47 -25 65 l-24 25 -831 0 -831 0 -24 -25z"/>
<path d="M1830 2315 c0 -624 3 -772 14 -798 17 -42 66 -83 114 -97 50 -14
1154 -14 1204 0 48 14 97 55 114 97 11 26 14 174 14 798 l0 765 -730 0 -730 0
0 -765z m343 586 c14 -6 35 -20 46 -32 21 -23 21 -27 21 -622 l0 -599 -29 -29
c-23 -23 -38 -29 -71 -29 -33 0 -48 6 -71 29 l-29 29 0 595 c0 592 0 594 21
621 33 42 69 53 112 37z m460 -31 l27 -30 0 -596 0 -596 -29 -29 c-23 -23 -38
-29 -71 -29 -33 0 -48 6 -71 29 l-29 29 0 595 c0 592 0 594 21 621 43 54 105
57 152 6z m420 0 l27 -30 0 -596 0 -596 -29 -29 c-23 -23 -38 -29 -71 -29 -33
0 -48 6 -71 29 l-29 29 0 599 c1 647 -2 617 56 648 39 21 83 12 117 -25z"/>
</g>
</svg>
